@startuml
left to right direction
package "HotelBooking"{
    class "<<Application>>\nHotelBooking" as HotelBooking{}

    class "<<Resource>>\nHotels" as ResourceHotels{
        <<GET>> +getHotels(): Hotel
        <<POST>> +createHotel(): Hotel
    }

    class "<<Resource>>\nHotel" as ResourceHotel {
        <<GET>> +getHotel(): Hotel
        <<PUT>> +updateHotel(): Hotel
        <<DELETE>> +deleteHotel(): void
    }

    class "<<Resource>>\nAuth" as ResourceAuth {
        
    }

    class "<<Resource>>\nLogin" as ResourceLogin {
        <<POST>> +login(): TOKEN
    }

    class "<<Resource>>\nLogout" as ResourceLogout {
        <<GET>> logout+(): void
    }

    class "<<Resource>>\nRegister" as ResourceRegister {
        <<POST>> +register(): TOKEN
    }

    class "<<Resource>>\nGetMe" as ResourceGetMe {
        <<GET>> getMe+(): User
    }
    
    class "<<Resource>>\nReservations" as ResourceReservations{
        <<GET>> +getReservations(): Reservation
        <<POST>> +addReservation(): Reservation
    }

    class "<<Resource>>\nReservation" as ResourceReservation {
        <<GET>> +getReservation(): Reservation
        <<PUT>> +updateReservation(): Reservation
        <<DELETE>> +deleteReservation(): void
    }

    class "<<Representation>>\nHotel" as RepresentationHotel {
        -name
        -address
        -district
        -province
        -postalcode
        -telephone
        -region
    }

    class "<<Representation>>\nUser" as RepresentationUser {
        -name
        -tel
        -email
        -role
        -password
        -createAt
    }

    class "<<Representation>>\nReservation" as RepresentationReservation {
        -revDate
        -nightNum
        -user
        -hotel
        -createdAt
    }

}

HotelBooking ..> ResourceHotels:"/hotels\n<<Path>>"
HotelBooking ..> ResourceAuth:"/auth\n<<Path>>"

ResourceHotels ..> ResourceHotel: "/{hotelId}\n<<Path>>"
ResourceHotel ..> ResourceReservations: "/reservations\n<<Path>>"
ResourceHotel ..> RepresentationHotel: "<<use>>"

ResourceAuth ..> ResourceLogin:"/login\n<<Path>>"
ResourceAuth ..> ResourceLogout:"/logout\n<<Path>>"
ResourceAuth ..> ResourceRegister:"/register\n<<Path>>"
ResourceAuth ..> ResourceGetMe:"/me\n<<Path>>"
ResourceLogin ..> RepresentationUser: "<<use>>"
ResourceRegister ..> RepresentationUser: "<<use>>"
ResourceGetMe ..> RepresentationUser: "<<use>>"

HotelBooking ..> ResourceReservations: "/reservations\n<<Path>>"
ResourceReservations ..> ResourceReservation: "/{reservationId}\n<<Path>>"
ResourceReservation ..> RepresentationReservation: "<<use>>"

@enduml